<mxfile host="app.diagrams.net" modified="2023-04-01T23:29:33.721Z" agent="Mozilla/5.0 (Windows NT 10.0; Win64; x64) AppleWebKit/537.36 (KHTML, like Gecko) Chrome/110.0.0.0 Safari/537.36 OPR/96.0.0.0" etag="wBl5eKNzZhCvIIA6t4mI" version="21.1.2" type="github">
  <diagram id="2KpLl_mZCOHA58I0HmC6" name="Page-1">
    <mxGraphModel dx="2033" dy="1164" grid="1" gridSize="10" guides="1" tooltips="1" connect="1" arrows="1" fold="1" page="1" pageScale="1" pageWidth="1100" pageHeight="850" math="0" shadow="0">
      <root>
        <mxCell id="0" />
        <mxCell id="1" parent="0" />
        <mxCell id="-pHp2P_mZ8aD6D5N5FeK-6" value="Animal" style="swimlane;fontStyle=3;align=center;verticalAlign=top;childLayout=stackLayout;horizontal=1;startSize=26;horizontalStack=0;resizeParent=1;resizeParentMax=0;resizeLast=0;collapsible=1;marginBottom=0;" parent="1" vertex="1">
          <mxGeometry x="470" y="10" width="340" height="458" as="geometry" />
        </mxCell>
        <mxCell id="-pHp2P_mZ8aD6D5N5FeK-33" value="&lt;span style=&quot;font-family: Helvetica; font-size: 12px; font-variant-ligatures: normal; font-variant-caps: normal; font-weight: 400; letter-spacing: normal; orphans: 2; text-align: left; text-indent: 0px; text-transform: none; widows: 2; word-spacing: 0px; -webkit-text-stroke-width: 0px; text-decoration-thickness: initial; text-decoration-style: initial; text-decoration-color: initial; float: none; display: inline !important;&quot;&gt;# ANIMALID: int&lt;br&gt;# TYPE: String&lt;br&gt;# name: String&lt;br&gt;# careNeeded: ArrayList&amp;lt;Treatment&amp;gt;&lt;br&gt;# activeHours: ActiveHours&lt;br&gt;# feedingSchedule: Schedule&lt;br&gt;# timeToFeed: int&lt;br&gt;# isFed: boolean = false&lt;br&gt;# cageCleaned: boolean = false&lt;br&gt;&lt;/span&gt;" style="text;whiteSpace=wrap;html=1;labelBackgroundColor=none;fontColor=default;spacingLeft=4;spacingRight=4;fontStyle=2;" parent="-pHp2P_mZ8aD6D5N5FeK-6" vertex="1">
          <mxGeometry y="26" width="340" height="144" as="geometry" />
        </mxCell>
        <mxCell id="-pHp2P_mZ8aD6D5N5FeK-11" value="" style="line;strokeWidth=1;fillColor=none;align=left;verticalAlign=middle;spacingTop=-1;spacingLeft=3;spacingRight=3;rotatable=0;labelPosition=right;points=[];portConstraint=eastwest;strokeColor=inherit;" parent="-pHp2P_mZ8aD6D5N5FeK-6" vertex="1">
          <mxGeometry y="170" width="340" height="8" as="geometry" />
        </mxCell>
        <mxCell id="-pHp2P_mZ8aD6D5N5FeK-12" value="+ Animal(ANIMALID: int, TYPE: String, name: String, &#xa;activeHours: ActiveHours, careNeeded: ArrayList&lt;Treatment&gt;, &#xa;feedingSchedule: Schedule, timeToFeed: int)&#xa;+ getANIMALID: int&#xa;+ getTYPE(): String&#xa;+ getName(): String&#xa;+ setName(name: String): void&#xa;+ getCareNeeded(): ArrayList&lt;Treatment&gt;&#xa;+ setCareNeeded(care: ArrayList&lt;Treatment&gt;): void&#xa;+ getActiveHours(): ActiveHours&#xa;+ getFeedingSchedule(): Schedule&#xa;+ getTimeToFeed(): int&#xa;+ setTimeToFeed(timeToFeed: int): void&#xa;+ isFed(): boolean&#xa;+ isCageCleaned(): boolean&#xa;+ setCagedCleaned(cleaned: boolean): void&#xa;+ setFed(fed: boolean): void&#xa;+ isDueForFeeding(currentHour: int): boolean&#xa;+ isDueForCleaning(currentHour: int): boolean&#xa;&#xa;" style="text;strokeColor=none;fillColor=none;align=left;verticalAlign=top;spacingLeft=4;spacingRight=4;overflow=hidden;rotatable=0;points=[[0,0.5],[1,0.5]];portConstraint=eastwest;fontStyle=2" parent="-pHp2P_mZ8aD6D5N5FeK-6" vertex="1">
          <mxGeometry y="178" width="340" height="280" as="geometry" />
        </mxCell>
        <mxCell id="-pHp2P_mZ8aD6D5N5FeK-13" value="« enumeration »&lt;br style=&quot;border-color: var(--border-color); font-weight: 400;&quot;&gt;&lt;b style=&quot;border-color: var(--border-color);&quot;&gt;ActiveHours&lt;/b&gt;" style="swimlane;fontStyle=1;align=center;verticalAlign=top;childLayout=stackLayout;horizontal=1;startSize=50;horizontalStack=0;resizeParent=1;resizeParentMax=0;resizeLast=0;collapsible=1;marginBottom=0;whiteSpace=wrap;html=1;" parent="1" vertex="1">
          <mxGeometry x="890" y="20" width="200" height="134" as="geometry" />
        </mxCell>
        <mxCell id="-pHp2P_mZ8aD6D5N5FeK-14" value="NOCTURNAL&lt;br&gt;DIURNAL&lt;br&gt;CREPUSCULAR" style="text;strokeColor=none;fillColor=none;align=left;verticalAlign=top;spacingLeft=4;spacingRight=4;overflow=hidden;rotatable=0;points=[[0,0.5],[1,0.5]];portConstraint=eastwest;whiteSpace=wrap;html=1;" parent="-pHp2P_mZ8aD6D5N5FeK-13" vertex="1">
          <mxGeometry y="50" width="200" height="50" as="geometry" />
        </mxCell>
        <mxCell id="-pHp2P_mZ8aD6D5N5FeK-15" value="" style="line;strokeWidth=1;fillColor=none;align=left;verticalAlign=middle;spacingTop=-1;spacingLeft=3;spacingRight=3;rotatable=0;labelPosition=right;points=[];portConstraint=eastwest;strokeColor=inherit;" parent="-pHp2P_mZ8aD6D5N5FeK-13" vertex="1">
          <mxGeometry y="100" width="200" height="8" as="geometry" />
        </mxCell>
        <mxCell id="-pHp2P_mZ8aD6D5N5FeK-16" value="&lt;i&gt;+ feedingHours(): ArrayList&amp;lt;int&amp;gt;&lt;/i&gt;" style="text;strokeColor=none;fillColor=none;align=left;verticalAlign=top;spacingLeft=4;spacingRight=4;overflow=hidden;rotatable=0;points=[[0,0.5],[1,0.5]];portConstraint=eastwest;whiteSpace=wrap;html=1;" parent="-pHp2P_mZ8aD6D5N5FeK-13" vertex="1">
          <mxGeometry y="108" width="200" height="26" as="geometry" />
        </mxCell>
        <mxCell id="-pHp2P_mZ8aD6D5N5FeK-19" value="Task" style="swimlane;fontStyle=1;align=center;verticalAlign=top;childLayout=stackLayout;horizontal=1;startSize=26;horizontalStack=0;resizeParent=1;resizeParentMax=0;resizeLast=0;collapsible=1;marginBottom=0;whiteSpace=wrap;html=1;" parent="1" vertex="1">
          <mxGeometry x="80" y="620" width="220" height="200" as="geometry" />
        </mxCell>
        <mxCell id="3hYf7BkFwzR19k11kG9j-5" value="&lt;div style=&quot;&quot;&gt;&lt;span style=&quot;background-color: initial;&quot;&gt;- TASKID: int&lt;/span&gt;&lt;/div&gt;&lt;div style=&quot;&quot;&gt;&lt;span style=&quot;background-color: initial;&quot;&gt;- DURATION: int&lt;/span&gt;&lt;/div&gt;&lt;div style=&quot;&quot;&gt;&lt;span style=&quot;background-color: initial;&quot;&gt;- timeWindow: int&lt;/span&gt;&lt;/div&gt;&lt;div style=&quot;&quot;&gt;&lt;span style=&quot;background-color: initial;&quot;&gt;- description: String&lt;/span&gt;&lt;/div&gt;" style="text;html=1;align=left;verticalAlign=middle;resizable=0;points=[];autosize=1;strokeColor=none;fillColor=none;" parent="-pHp2P_mZ8aD6D5N5FeK-19" vertex="1">
          <mxGeometry y="26" width="220" height="70" as="geometry" />
        </mxCell>
        <mxCell id="-pHp2P_mZ8aD6D5N5FeK-22" value="" style="line;strokeWidth=1;fillColor=none;align=left;verticalAlign=middle;spacingTop=-1;spacingLeft=3;spacingRight=3;rotatable=0;labelPosition=right;points=[];portConstraint=eastwest;strokeColor=inherit;" parent="-pHp2P_mZ8aD6D5N5FeK-19" vertex="1">
          <mxGeometry y="96" width="220" height="8" as="geometry" />
        </mxCell>
        <mxCell id="-pHp2P_mZ8aD6D5N5FeK-23" value="+ Task(TASKID: int, DURATION: int, timeWindow: int, description: String)&lt;br&gt;+ getDURATION(): int&lt;br&gt;+ getTimeWindow(): int&lt;br&gt;+ getDescription(): String&lt;br&gt;+ getID(): int" style="text;strokeColor=none;fillColor=none;align=left;verticalAlign=top;spacingLeft=4;spacingRight=4;overflow=hidden;rotatable=0;points=[[0,0.5],[1,0.5]];portConstraint=eastwest;whiteSpace=wrap;html=1;" parent="-pHp2P_mZ8aD6D5N5FeK-19" vertex="1">
          <mxGeometry y="104" width="220" height="96" as="geometry" />
        </mxCell>
        <mxCell id="X3xmoL7LCD3JFngqE5RC-1" value="" style="html=1;labelBackgroundColor=#ffffff;startArrow=none;startFill=0;startSize=6;endArrow=classic;endFill=1;endSize=6;jettySize=auto;orthogonalLoop=1;strokeWidth=1;dashed=1;fontSize=14;rounded=0;exitX=1;exitY=0.75;exitDx=0;exitDy=0;entryX=-0.015;entryY=0.84;entryDx=0;entryDy=0;entryPerimeter=0;" parent="1" source="-pHp2P_mZ8aD6D5N5FeK-33" target="-pHp2P_mZ8aD6D5N5FeK-14" edge="1">
          <mxGeometry width="60" height="60" relative="1" as="geometry">
            <mxPoint x="730" y="116" as="sourcePoint" />
            <mxPoint x="830" y="230" as="targetPoint" />
          </mxGeometry>
        </mxCell>
        <mxCell id="X3xmoL7LCD3JFngqE5RC-2" value="&amp;lt;&amp;lt;uses&amp;gt;&amp;gt;" style="text;html=1;align=center;verticalAlign=middle;resizable=0;points=[];autosize=1;strokeColor=none;fillColor=none;" parent="1" vertex="1">
          <mxGeometry x="810" y="90" width="80" height="30" as="geometry" />
        </mxCell>
        <mxCell id="X3xmoL7LCD3JFngqE5RC-3" value="Treatment" style="swimlane;fontStyle=1;align=center;verticalAlign=top;childLayout=stackLayout;horizontal=1;startSize=26;horizontalStack=0;resizeParent=1;resizeParentMax=0;resizeLast=0;collapsible=1;marginBottom=0;whiteSpace=wrap;html=1;" parent="1" vertex="1">
          <mxGeometry x="80" y="330" width="220" height="210" as="geometry" />
        </mxCell>
        <mxCell id="X3xmoL7LCD3JFngqE5RC-4" value="- TASKID: int&lt;br&gt;- STARTTIME: int&lt;br&gt;- task: Task" style="text;strokeColor=none;fillColor=none;align=left;verticalAlign=top;spacingLeft=4;spacingRight=4;overflow=hidden;rotatable=0;points=[[0,0.5],[1,0.5]];portConstraint=eastwest;whiteSpace=wrap;html=1;" parent="X3xmoL7LCD3JFngqE5RC-3" vertex="1">
          <mxGeometry y="26" width="220" height="54" as="geometry" />
        </mxCell>
        <mxCell id="X3xmoL7LCD3JFngqE5RC-5" value="" style="line;strokeWidth=1;fillColor=none;align=left;verticalAlign=middle;spacingTop=-1;spacingLeft=3;spacingRight=3;rotatable=0;labelPosition=right;points=[];portConstraint=eastwest;strokeColor=inherit;" parent="X3xmoL7LCD3JFngqE5RC-3" vertex="1">
          <mxGeometry y="80" width="220" height="8" as="geometry" />
        </mxCell>
        <mxCell id="X3xmoL7LCD3JFngqE5RC-6" value="+ Treatments(TASKID: int, STARTTIME: int)&lt;br&gt;+ getTask(): Task&lt;br&gt;+ getStartTime: int&lt;br&gt;+ getTaskID(): int&lt;br&gt;+setTaskID(taskID: int): void&lt;br&gt;+setStartTime(startTime: int): void" style="text;strokeColor=none;fillColor=none;align=left;verticalAlign=top;spacingLeft=4;spacingRight=4;overflow=hidden;rotatable=0;points=[[0,0.5],[1,0.5]];portConstraint=eastwest;whiteSpace=wrap;html=1;" parent="X3xmoL7LCD3JFngqE5RC-3" vertex="1">
          <mxGeometry y="88" width="220" height="122" as="geometry" />
        </mxCell>
        <mxCell id="X3xmoL7LCD3JFngqE5RC-8" value="" style="endArrow=diamondThin;endFill=1;endSize=24;html=1;rounded=0;exitX=0;exitY=0.618;exitDx=0;exitDy=0;entryX=1;entryY=0.5;entryDx=0;entryDy=0;exitPerimeter=0;" parent="1" source="-pHp2P_mZ8aD6D5N5FeK-12" target="X3xmoL7LCD3JFngqE5RC-4" edge="1">
          <mxGeometry width="160" relative="1" as="geometry">
            <mxPoint x="480" y="452" as="sourcePoint" />
            <mxPoint x="620" y="450" as="targetPoint" />
          </mxGeometry>
        </mxCell>
        <mxCell id="X3xmoL7LCD3JFngqE5RC-11" value="" style="endArrow=diamondThin;endFill=0;endSize=24;html=1;rounded=0;entryX=0.505;entryY=1.016;entryDx=0;entryDy=0;entryPerimeter=0;exitX=0.5;exitY=0;exitDx=0;exitDy=0;" parent="1" source="-pHp2P_mZ8aD6D5N5FeK-19" target="X3xmoL7LCD3JFngqE5RC-6" edge="1">
          <mxGeometry width="160" relative="1" as="geometry">
            <mxPoint x="191" y="590" as="sourcePoint" />
            <mxPoint x="780" y="599.5" as="targetPoint" />
          </mxGeometry>
        </mxCell>
        <mxCell id="X3xmoL7LCD3JFngqE5RC-12" value="Schedule" style="swimlane;fontStyle=1;align=center;verticalAlign=top;childLayout=stackLayout;horizontal=1;startSize=26;horizontalStack=0;resizeParent=1;resizeParentMax=0;resizeLast=0;collapsible=1;marginBottom=0;whiteSpace=wrap;html=1;" parent="1" vertex="1">
          <mxGeometry x="30" y="70" width="340" height="230" as="geometry" />
        </mxCell>
        <mxCell id="X3xmoL7LCD3JFngqE5RC-13" value="&lt;u&gt;- workingHours: HashMap&amp;lt;int, String&amp;gt; = new HashMap(24)&lt;br&gt;&lt;/u&gt;- backupVolunteerNeeded: boolean = false&lt;br&gt;- animals: ArrayList&amp;lt;Animal&amp;gt;&amp;nbsp;&lt;br&gt;- tasks: HashMap&amp;lt;int, ArrayList&amp;lt;Task&amp;gt;&amp;gt; = new HashMap(24)" style="text;strokeColor=none;fillColor=none;align=left;verticalAlign=top;spacingLeft=4;spacingRight=4;overflow=hidden;rotatable=0;points=[[0,0.5],[1,0.5]];portConstraint=eastwest;whiteSpace=wrap;html=1;" parent="X3xmoL7LCD3JFngqE5RC-12" vertex="1">
          <mxGeometry y="26" width="340" height="74" as="geometry" />
        </mxCell>
        <mxCell id="X3xmoL7LCD3JFngqE5RC-14" value="" style="line;strokeWidth=1;fillColor=none;align=left;verticalAlign=middle;spacingTop=-1;spacingLeft=3;spacingRight=3;rotatable=0;labelPosition=right;points=[];portConstraint=eastwest;strokeColor=inherit;" parent="X3xmoL7LCD3JFngqE5RC-12" vertex="1">
          <mxGeometry y="100" width="340" height="8" as="geometry" />
        </mxCell>
        <mxCell id="X3xmoL7LCD3JFngqE5RC-15" value="+ Schedule(animals: Animal[])&lt;br&gt;+ getBackupNeeded(): boolean&lt;br&gt;+ setBackupNeeded(needed: boolean)&lt;br&gt;+ scheduleFeedingAndCleaningTasks()&lt;br&gt;+ getFormattedSchedule(): String&lt;br&gt;+ addTask(hour: int, task: Task)&lt;br&gt;+ removeTask(hour: int, task: Task)" style="text;strokeColor=none;fillColor=none;align=left;verticalAlign=top;spacingLeft=4;spacingRight=4;overflow=hidden;rotatable=0;points=[[0,0.5],[1,0.5]];portConstraint=eastwest;whiteSpace=wrap;html=1;" parent="X3xmoL7LCD3JFngqE5RC-12" vertex="1">
          <mxGeometry y="108" width="340" height="122" as="geometry" />
        </mxCell>
        <mxCell id="3hYf7BkFwzR19k11kG9j-4" value="" style="endArrow=classic;html=1;rounded=0;exitX=1;exitY=0.5;exitDx=0;exitDy=0;entryX=0;entryY=0.25;entryDx=0;entryDy=0;" parent="1" source="X3xmoL7LCD3JFngqE5RC-13" target="-pHp2P_mZ8aD6D5N5FeK-33" edge="1">
          <mxGeometry width="50" height="50" relative="1" as="geometry">
            <mxPoint x="360" y="90" as="sourcePoint" />
            <mxPoint x="410" y="40" as="targetPoint" />
          </mxGeometry>
        </mxCell>
        <mxCell id="3hYf7BkFwzR19k11kG9j-6" value="IllegalArgumentException" style="swimlane;fontStyle=0;childLayout=stackLayout;horizontal=1;startSize=26;fillColor=none;horizontalStack=0;resizeParent=1;resizeParentMax=0;resizeLast=0;collapsible=1;marginBottom=0;whiteSpace=wrap;html=1;" parent="1" vertex="1">
          <mxGeometry x="340" y="530" width="180" height="80" as="geometry" />
        </mxCell>
      </root>
    </mxGraphModel>
  </diagram>
</mxfile>
